<?xml version="1.0" encoding="utf-8"?>
<!-- Generator: Adobe Illustrator 21.0.0, SVG Export Plug-In . SVG Version: 6.00 Build 0)  -->
<svg version="1.1" id="svg45453" xmlns:svg="http://www.w3.org/2000/svg"
	 xmlns="http://www.w3.org/2000/svg" xmlns:xlink="http://www.w3.org/1999/xlink" x="0px" y="0px" viewBox="0 0 16 16"
	 style="enable-background:new 0 0 16 16;" xml:space="preserve">
<style type="text/css">
	.st0{fill:#C22133;}
	.st1{fill:#DB212E;}
	.st2{fill:#EB2126;}
	.st3{fill:#AD213B;}
	.st4{fill:#BA2133;}
</style>
<path id="path44560" class="st0" d="M15,4.7c-0.2-0.3-0.3-0.6-0.6-0.9l-2.3,0.8c0.3,0.3,0.5,0.6,0.7,0.9L15,4.7z M4.8,7.3L2.5,8.1
	c0,0.4,0.1,0.7,0.2,1.1l2.2-0.8C4.8,8,4.8,7.6,4.8,7.3"/>
<path id="path44564" class="st1" d="M9.9,4.1c0.5,0.2,0.9,0.5,1.2,0.9l2.3-0.8C12.8,3.2,12,2.5,10.9,2C7.6,0.5,3.7,1.9,2.2,5.2
	C1.7,6.2,1.5,7.3,1.6,8.4l2.3-0.8c0-0.5,0.2-1,0.4-1.5C5.3,4,7.8,3.1,9.9,4.1"/>
<path id="path44572" class="st1" d="M12.4,8.3c0,0.5-0.2,1-0.4,1.5c-1,2.1-3.5,3.1-5.7,2.1c-0.5-0.2-0.9-0.5-1.2-0.9l-2.3,0.8
	c0.6,0.9,1.5,1.6,2.6,2.1c3.3,1.5,7.2,0.1,8.7-3.2c0.5-1.1,0.7-2.2,0.6-3.3L12.4,8.3L12.4,8.3z"/>
<path id="path44576" class="st2" d="M12.9,5.5l-2.2,0.8c0.4,0.7,0.6,1.6,0.5,2.4l2.3-0.8C13.5,7,13.3,6.2,12.9,5.5 M2.9,9.1L0.7,9.9
	c0.2,0.8,0.5,1.5,1,2.2L4,11.3C3.4,10.7,3,9.9,2.9,9.1"/>
<path id="path44584" class="st3" d="M14.6,4.1c-0.1-0.1-0.1-0.2-0.2-0.3l-2.3,0.8c0.1,0.1,0.2,0.2,0.3,0.3L14.6,4.1z M4.8,7.7
	c0-0.2,0-0.3,0-0.5L2.5,8.1c0,0.1,0,0.3,0.1,0.4L4.8,7.7L4.8,7.7z"/>
<path id="path44588" class="st4" d="M14.7,7.4l-2.3,0.8c0,0.3-0.1,0.7-0.2,1l2.5-0.9C14.7,8,14.7,7.7,14.7,7.4 M2.8,11.7
	C3,12,3.2,12.2,3.4,12.4l2.5-0.9c-0.3-0.2-0.6-0.4-0.8-0.6L2.8,11.7z"/>
</svg>
